<svg xmlns="http://www.w3.org/2000/svg" version="1.1" xmlns:xlink="http://www.w3.org/1999/xlink" xmlns:svgjs="http://svgjs.dev/svgjs" width="1440" height="560" preserveAspectRatio="none" viewBox="0 0 1440 560"><g mask="url(&quot;#SvgjsMask1041&quot;)" fill="none"><path d="M 0,253 C 57.6,228.8 172.8,149 288,132 C 403.2,115 460.8,170.6 576,168 C 691.2,165.4 748.8,118.8 864,119 C 979.2,119.2 1036.8,171.8 1152,169 C 1267.2,166.2 1382.4,117.8 1440,105L1440 560L0 560z" fill="rgba(55, 65, 81, 1)"></path><path d="M 0,470 C 41.2,447.2 123.6,353.2 206,356 C 288.4,358.8 329.6,492 412,484 C 494.4,476 535.6,321.8 618,316 C 700.4,310.2 741.6,436 824,455 C 906.4,474 947.6,398.8 1030,411 C 1112.4,423.2 1154,530 1236,516 C 1318,502 1399.2,376 1440,341L1440 560L0 560z" fill="rgba(31, 41, 55, 1)"></path></g><defs><mask id="SvgjsMask1041"><rect width="1440" height="560" fill="#ffffff"></rect></mask></defs></svg>